<svg xmlns="http://www.w3.org/2000/svg" viewBox="0 0 33 38"><defs><style>.cls-1{fill:none;stroke:#fff;stroke-miterlimit:10;stroke-width:3px;}</style></defs><g id="Layer_2" data-name="Layer 2"><g id="Layer_1-2" data-name="Layer 1"><path class="cls-1" d="M11.5,11.5v15a10,10,0,0,1-10-10V1.5A10,10,0,0,1,8.57,4.43,10,10,0,0,1,11.5,11.5Z"/><path class="cls-1" d="M16.5,26.5a5,5,0,0,1,5,5v5h-10v-5A5,5,0,0,1,16.5,26.5Z"/><path class="cls-1" d="M31.5,1.5v15a10,10,0,0,1-10,10v-15A10,10,0,0,1,31.5,1.5Z"/><path class="cls-1" d="M20,18A5,5,0,1,1,16.5,16.5,5,5,0,0,1,20,18Z"/></g></g></svg>